<svg xmlns="http://www.w3.org/2000/svg" viewBox="0 0 18 18"><defs><style>.cls-1{fill:#fff;}.cls-2{fill:none;}</style></defs><title>cloudcode_18px_white</title><g id="Layer_2" data-name="Layer 2"><g id="template"><polygon class="cls-1" points="3.1 5.88 5.89 3.07 8.69 5.88 5.89 8.69 3.1 5.88"/><polygon class="cls-1" points="0 9 2.79 6.19 5.58 9 2.79 11.81 0 9"/><polygon class="cls-1" points="3.1 12.12 5.9 9.31 8.69 12.12 5.9 14.93 3.1 12.12"/><polygon class="cls-1" points="9.31 5.88 12.11 3.07 14.89 5.88 12.11 8.69 9.31 5.88"/><polygon class="cls-1" points="12.42 9 15.21 6.19 18 9 15.21 11.81 12.42 9"/><polygon class="cls-1" points="9.31 12.12 12.1 9.31 14.89 12.12 12.1 14.93 9.31 12.12"/><rect class="cls-2" width="18" height="18"/></g></g></svg>